<?xml version="1.0" encoding="utf-8"?>
<!-- Generator: Adobe Illustrator 19.0.0, SVG Export Plug-In . SVG Version: 6.00 Build 0)  -->
<svg version="1.1" id="Lager_1" xmlns="http://www.w3.org/2000/svg" xmlns:xlink="http://www.w3.org/1999/xlink" x="0px" y="0px"
	 viewBox="202 -80.1 1000 1000" style="enable-background:new 202 -80.1 1000 1000;" xml:space="preserve">
<style type="text/css">
	.st0{fill:#FFFFFF;}
</style>
<g transform="translate(0.000000,1000.000000) scale(0.100000,-0.100000)">
	<path class="st0" d="M2575,10612.1c-179-51-323-198-370-376c-13-53-15-537-15-4427c0-3149,3-4382,11-4420c31-148,144-291,283-358
		c45-21,108-43,140-49c41-8,780-11,2390-11h2331l-3,1870l-2,1870h-625h-625v730v730h625h625v513c1,737,15,948,85,1207
		c148,548,490,941,991,1140c108,43,270,87,409,112c224,39,819,35,1325-8c96-8,181-16,188-19c9-3,12-143,12-655v-650h-412
		c-418,0-551-7-668-36c-224-55-352-194-396-430c-17-88-19-157-19-634v-535l720-5l721-5l-93-715c-50-393-92-721-93-727
		c0-10-133-13-630-13h-630v-1870v-1870l1288,2l1287,3l69,27c158,61,267,171,328,334l23,59l3,4365c2,3219,0,4383-9,4433
		c-33,201-208,385-407,426c-38,8-1269,11-4425,10C2899,10630.1,2631,10629.1,2575,10612.1z"/>
</g>
</svg>
